<svg xmlns="http://www.w3.org/2000/svg" xmlns:xlink="http://www.w3.org/1999/xlink" version="1.1" width="256" height="256" viewBox="0 0 256 256" xml:space="preserve">
<desc>Created with Fabric.js 1.7.22</desc>
<defs>
</defs>
<g transform="translate(128 128) scale(0.72 0.72)" style="">
	<g style="stroke: none; stroke-width: 0; stroke-dasharray: none; stroke-linecap: butt; stroke-linejoin: miter; stroke-miterlimit: 10; fill: none; fill-rule: nonzero; opacity: 1;" transform="translate(-175.05 -175.05000000000004) scale(3.89 3.89)" >
	<path d="M 62.706 54.982 L 46.978 43.97 V 21.594 c 0 -1.092 -0.886 -1.978 -1.978 -1.978 s -1.978 0.886 -1.978 1.978 V 45 c 0 0.046 0.01 0.088 0.013 0.133 c 0.005 0.079 0.009 0.158 0.024 0.236 c 0.012 0.063 0.033 0.122 0.051 0.183 c 0.018 0.062 0.033 0.125 0.057 0.185 c 0.024 0.06 0.056 0.114 0.085 0.171 c 0.03 0.058 0.057 0.116 0.093 0.171 c 0.035 0.053 0.077 0.101 0.116 0.15 c 0.04 0.051 0.078 0.103 0.123 0.15 c 0.053 0.055 0.113 0.101 0.173 0.149 c 0.037 0.03 0.068 0.065 0.108 0.093 l 16.57 11.603 c 0.346 0.241 0.742 0.357 1.133 0.357 c 0.624 0 1.237 -0.294 1.623 -0.843 C 63.817 56.842 63.6 55.609 62.706 54.982 z" style="stroke: none; stroke-width: 1; stroke-dasharray: none; stroke-linecap: butt; stroke-linejoin: miter; stroke-miterlimit: 10; fill: rgb(0,0,0); fill-rule: nonzero; opacity: 1;" transform=" matrix(1 0 0 1 0 0) " stroke-linecap="round" />
	<path d="M 45.922 0.023 c -0.046 -0.004 -0.09 -0.015 -0.136 -0.016 c -0.041 -0.001 -0.081 0.008 -0.122 0.01 C 45.442 0.014 45.223 0 45 0 C 20.187 0 0 20.187 0 45 c 0 24.502 19.688 44.48 44.074 44.977 c 0.048 0.004 0.093 0.016 0.141 0.017 c 0.012 0 0.023 0 0.035 0 c 0.034 0 0.065 -0.008 0.098 -0.01 C 44.566 89.987 44.781 90 45 90 c 24.813 0 45 -20.187 45 -45 C 90 20.496 70.31 0.518 45.922 0.023 z M 46.262 86.012 l 0.1 -5.708 c 0.019 -1.092 -0.851 -1.993 -1.943 -2.013 c -1.1 0.025 -1.993 0.852 -2.012 1.943 l -0.1 5.711 C 21.58 84.596 4.999 67.799 4.006 46.978 h 5.719 c 1.092 0 1.978 -0.886 1.978 -1.978 s -0.886 -1.978 -1.978 -1.978 H 4.006 C 5.022 21.724 22.348 4.639 43.738 3.988 l -0.1 5.708 c -0.019 1.092 0.851 1.993 1.943 2.012 c 0.012 0 0.023 0 0.035 0 c 1.077 0 1.959 -0.863 1.977 -1.944 l 0.1 -5.711 c 20.727 1.35 37.308 18.147 38.301 38.968 h -5.719 c -1.092 0 -1.978 0.886 -1.978 1.978 s 0.886 1.978 1.978 1.978 h 5.719 C 84.978 68.276 67.652 85.361 46.262 86.012 z" style="stroke: none; stroke-width: 1; stroke-dasharray: none; stroke-linecap: butt; stroke-linejoin: miter; stroke-miterlimit: 10; fill: rgb(0,0,0); fill-rule: nonzero; opacity: 1;" transform=" matrix(1 0 0 1 0 0) " stroke-linecap="round" />
</g>
</g>
</svg>